<svg width="176" height="165" viewBox="0 0 176 165" fill="none" xmlns="http://www.w3.org/2000/svg">
<path d="M111.23 22.001L98.3999 27.4467C98.3999 27.4467 97.9045 27.4809 97.0588 27.5409C91.7797 27.8919 72.6535 29.1592 71.919 29.1592C71.0647 29.1592 54.006 29.8528 54.006 29.8528V24.6896C54.006 24.6896 55.7229 1.67355 82.614 0.432035C84.7234 -0.00384944 86.8872 -0.110738 89.0292 0.115141C95.8372 0.740273 106.293 4.70472 111.23 22.001Z" fill="#5E1212"/>
<path d="M111.23 22.0001L98.4 27.4458C98.4 27.4458 97.9046 27.48 97.0589 27.54C82.631 26.5468 54.006 24.6887 54.006 24.6887C67.1521 24.1822 80.2564 22.8898 93.249 20.8184C94.3124 20.6515 95.3209 20.2334 96.1913 19.5986C97.0616 18.9639 97.7689 18.1307 98.2546 17.1679C98.7403 16.205 98.9905 15.1402 98.9846 14.0613C98.9787 12.9824 98.7168 11.9204 98.2206 10.963C95.7737 6.86411 92.6681 3.1985 89.0292 0.114258C95.8373 0.739361 106.293 4.70383 111.23 22.0001Z" fill="#5E1212"/>
<path d="M131.741 35.5629C131.724 35.8996 131.682 36.2346 131.613 36.5647C131.118 38.9708 128.572 48.5437 118.902 52.277L116.314 55.368L109.933 62.98L93.7027 55.2738L65.9404 60.3256L54.0069 60.5312L46.2933 56.5582C46.2933 56.5582 18.5225 39.7071 44.7727 27.6939C48.7187 25.9174 52.8986 24.7178 57.1846 24.1319C66.9143 22.7448 89.2437 20.0562 106.943 21.5461H106.952C120.927 22.7106 132.006 26.4867 131.741 35.5629Z" fill="#5E1212"/>
<path d="M131.742 35.5637C131.725 35.9004 131.682 36.2353 131.614 36.5655C131.118 38.9715 128.573 48.5445 118.903 52.2777L116.314 55.3688L111.232 54.8293C137.73 36.8309 106.944 21.5469 106.944 21.5469H106.952C120.927 22.7114 132.007 26.4874 131.742 35.5637Z" fill="#5E1212"/>
<path d="M175.28 165.302L102.372 167.845L99.7584 167.939L81.9137 168.564L79.3167 168.65L3.58125 171.296C3.58125 171.296 -14.3575 120.777 30.0622 108.789L29.8828 107.736C29.6907 106.562 29.8874 105.357 30.4427 104.306C30.998 103.255 31.8815 102.414 32.958 101.914L40.3129 98.5144C40.3129 98.5144 41.1671 79.6769 57.3974 74.5393L107.797 76.2518C107.797 76.2518 130.861 81.3893 133.423 101.083C133.423 101.083 141.111 101.083 142.82 107.933C149.65 109.602 155.892 113.12 160.864 118.103C165.835 123.086 169.345 129.343 171.009 136.189L175.28 165.302Z" fill="#FF725E"/>
<path d="M65.2364 83.9589H105.188C105.188 83.9589 124.027 82.2464 119.756 101.084C119.756 101.084 106.088 133.621 97.546 136.19C97.546 136.19 117.193 136.19 123.173 118.209C123.173 118.209 133.423 83.1027 106.088 79.6777L62.8812 81.2526C59.5758 81.3504 56.4221 82.6652 54.0226 84.946C49.3639 89.4428 44.232 98.6798 51.7127 115.28C52.5369 117.121 53.8485 118.7 55.505 119.845L63.706 125.487C63.706 125.487 53.5535 113.5 53.5535 109.218C53.5535 109.218 52.1411 100.016 53.9701 92.6482C54.6149 90.1493 56.0733 87.9377 58.1141 86.3637C60.1549 84.7897 62.6614 83.9434 65.2364 83.9589Z" fill="url(#paint0_linear_1_298)" style="mix-blend-mode:multiply"/>
<path d="M106.942 119.066L97.0248 129.341L86.4923 133.074L66.1617 114.048C63.8211 108.174 61.6685 82.2471 61.6685 82.2471L71.9192 77.9658L94.2657 80.1064L97.4007 81.8361L103.893 85.4153L105.149 99.2865L106.942 119.066Z" fill="#FFA787"/>
<path d="M105.149 99.2854C97.4007 100.998 66.8792 106.127 61.6685 82.246C61.6685 82.246 82.2724 82.9652 97.4007 81.835L103.893 85.4142L105.149 99.2854Z" fill="#FF8D69"/>
<path d="M65.9401 113.072C65.9401 113.072 82.1703 137.047 106.943 119.066C106.943 119.066 100.963 131.909 89.8583 137.903C89.8583 137.903 77.0449 131.053 75.3365 129.341C75.3365 129.341 67.6485 121.634 65.9401 113.072Z" fill="#5E1212"/>
<path d="M147.768 137.902C147.768 137.902 143.062 158.967 143.368 166.416L148.62 166.233C148.62 166.233 151.362 153.314 157.342 149.033C157.342 149.033 147.946 155.883 147.091 161.877L147.768 137.902Z" fill="#F53C42"/>
<path d="M18.1031 129.338C18.1031 129.338 34.3482 153.313 33.4866 171.295L29.9346 170.375C29.9346 170.375 29.208 150.745 19.8115 148.176C19.8115 148.176 27.4996 151.601 30.0623 156.738C30.0622 156.738 20.6658 136.188 18.1031 129.338Z" fill="#F53C42"/>
<g style="mix-blend-mode:multiply">
<path d="M81.9139 168.565L79.317 168.651C82.2043 143.332 74.8494 137.389 74.7725 137.329C74.4996 137.113 74.318 136.802 74.2642 136.457C74.2103 136.113 74.2882 135.761 74.4821 135.471C74.5739 135.331 74.6928 135.211 74.8319 135.119C74.9709 135.026 75.1271 134.962 75.2913 134.93C75.4555 134.899 75.6242 134.902 75.7875 134.937C75.9508 134.973 76.1053 135.041 76.2418 135.137C76.6006 135.394 84.8866 141.679 81.9139 168.565Z" fill="#F53C42"/>
</g>
<g style="mix-blend-mode:multiply">
<path d="M102.373 167.845L99.7595 167.94C95.1893 148.76 99.1957 139.212 99.3665 138.81C99.4311 138.652 99.5271 138.508 99.6486 138.388C99.7702 138.268 99.9149 138.174 100.074 138.111C100.233 138.049 100.403 138.019 100.573 138.025C100.744 138.03 100.912 138.07 101.066 138.142C101.379 138.297 101.62 138.567 101.739 138.895C101.859 139.224 101.847 139.586 101.707 139.906C101.647 140.043 97.8546 149.333 102.373 167.845Z" fill="#F53C42"/>
</g>
<path d="M142.82 107.934C142.82 107.934 135.132 131.909 104.38 140.471L88.2394 145.229C86.3975 145.772 84.4494 145.846 82.572 145.442C80.6946 145.039 78.9474 144.173 77.4889 142.921L67.6484 134.477C67.6484 134.477 44.1572 124.63 41.7293 122.918C40.5851 122.111 30.0625 108.79 30.0625 108.79" stroke="#F53C42" stroke-width="0.869783" stroke-miterlimit="10"/>
<path d="M107.797 73.3504C107.071 91.9053 89.3031 95.8612 84.0582 96.6232C83.0893 96.766 82.1047 96.7631 81.1367 96.6147C63.8985 93.986 57.3978 74.1895 57.3978 74.1895C49.7098 75.8592 46.2929 60.7806 46.2929 60.7806C45.4387 50.7282 52.2725 54.9238 52.2725 54.9238C50.8715 43.5186 60.0032 38.6979 68.5967 36.6686C72.9035 35.7018 77.304 35.2165 81.7176 35.2215C82.4864 35.2215 83.2552 35.2044 84.024 35.1787C110.172 34.4509 111.914 47.4745 111.18 53.922C111.12 54.4957 111.043 55.018 110.949 55.4718C111.03 55.252 111.124 55.0376 111.231 54.8297C113.102 51.2163 117.194 52.4065 117.194 52.4065C127.444 60.7806 107.797 73.3504 107.797 73.3504Z" fill="#FFA787"/>
<path d="M111.181 53.922C109.866 39.948 83.0259 35.1531 68.5981 36.6686C72.9049 35.7018 77.3055 35.2165 81.719 35.2215C82.4878 35.2215 83.2566 35.2044 84.0254 35.1787C110.173 34.4509 111.916 47.4745 111.181 53.922Z" fill="#FF8D69"/>
<path d="M114.425 55.3682C114.425 55.3682 124.028 57.4146 110.36 69.4021C110.36 69.4021 115.927 59.3155 114.425 55.3682Z" fill="#FFA787"/>
<path d="M52.1327 56.5586C52.1327 56.5586 42.5297 58.8061 56.1973 71.9711C56.1973 71.9711 50.6309 60.8936 52.1327 56.5586Z" fill="#FFA787"/>
<path d="M81.3549 63.9983C80.4937 65.5794 79.9089 67.2967 79.6258 69.0756C79.6148 69.4528 79.7373 69.8217 79.9717 70.117C80.2061 70.4123 80.5371 70.6149 80.9063 70.6889C82.2812 71.0222 83.6967 71.1554 85.1095 71.0845C85.3616 71.0529 85.6029 70.9626 85.8139 70.8208C86.025 70.679 86.2 70.4896 86.325 70.2678C86.4499 70.046 86.5213 69.798 86.5335 69.5436C86.5457 69.2892 86.4982 69.0355 86.395 68.8027L84.3241 64.0477C84.1986 63.7605 83.9935 63.5154 83.7331 63.3417C83.4727 63.1679 83.1681 63.0728 82.8553 63.0676C82.5426 63.0624 82.2349 63.1473 81.9689 63.3123C81.7029 63.4773 81.4898 63.7154 81.3549 63.9983Z" fill="#FF8D69"/>
<path d="M91.8545 45.4592L92.9199 49.43C92.9199 49.43 105.086 45.7006 108.508 49.307C108.508 49.307 100.167 42.2568 91.8545 45.4592Z" fill="#5E1212"/>
<path d="M73.2384 45.9972L72.3252 50.0059C72.3252 50.0059 60.0254 46.7456 56.7441 50.4805C56.7441 50.4805 64.8101 43.1158 73.2384 45.9972Z" fill="#5E1212"/>
<path d="M66.234 71.2039C64.1179 71.204 62.0492 70.575 60.2897 69.3966C58.5301 68.2181 57.1587 66.5432 56.3488 64.5835C55.539 62.6238 55.3271 60.4673 55.7399 58.3869C56.1527 56.3065 57.1718 54.3955 58.6681 52.8956C60.1645 51.3957 62.0709 50.3743 64.1464 49.9605C66.2219 49.5467 68.3732 49.759 70.3283 50.5708C72.2834 51.3826 73.9544 52.7572 75.13 54.521C76.3056 56.2847 76.9332 58.3582 76.9331 60.4794C76.9299 63.3227 75.8016 66.0487 73.7959 68.0592C71.7901 70.0698 69.0706 71.2007 66.234 71.2039ZM66.234 50.8789C64.3398 50.8788 62.488 51.4418 60.913 52.4966C59.3379 53.5515 58.1103 55.0508 57.3854 56.805C56.6605 58.5592 56.4707 60.4895 56.8402 62.3517C57.2097 64.214 58.1219 65.9246 59.4613 67.2673C60.8007 68.6099 62.5072 69.5243 64.365 69.8948C66.2229 70.2653 68.1486 70.0752 69.8987 69.3486C71.6487 68.6221 73.1446 67.3917 74.197 65.813C75.2494 64.2342 75.8112 62.3782 75.8113 60.4794C75.8084 57.9342 74.7984 55.494 73.003 53.6942C71.2075 51.8944 68.7732 50.882 66.234 50.8789Z" fill="white"/>
<path d="M99.8493 70.2581C97.7332 70.2582 95.6646 69.6292 93.9051 68.4508C92.1455 67.2724 90.7741 65.5975 89.9643 63.6378C89.1544 61.6781 88.9424 59.5217 89.3552 57.4413C89.768 55.3609 90.787 53.4499 92.2833 51.95C93.7796 50.4501 95.686 49.4286 97.7615 49.0147C99.8369 48.6009 101.988 48.8132 103.943 49.6249C105.898 50.4365 107.569 51.8111 108.745 53.5748C109.921 55.3384 110.548 57.4119 110.548 59.5331C110.545 62.3765 109.417 65.1026 107.411 67.1132C105.406 69.1239 102.686 70.2549 99.8493 70.2581ZM99.8493 49.9331C97.9551 49.9331 96.1034 50.4961 94.5283 51.551C92.9533 52.6058 91.7256 54.1051 91.0007 55.8594C90.2758 57.6136 90.0861 59.5439 90.4557 61.4062C90.8252 63.2684 91.7373 64.9791 93.0768 66.3217C94.4163 67.6643 96.1229 68.5787 97.9807 68.9491C99.8386 69.3195 101.764 69.1294 103.514 68.4027C105.264 67.6761 106.76 66.4456 107.813 64.8668C108.865 63.288 109.427 61.4318 109.427 59.5331C109.424 56.9879 108.414 54.5478 106.618 52.7481C104.823 50.9484 102.388 49.936 99.8493 49.9331V49.9331Z" fill="white"/>
<path d="M89.8575 58.2046H76.1899V60.2232H89.8575V58.2046Z" fill="white"/>
<defs>
<linearGradient id="paint0_linear_1_298" x1="85.4651" y1="57.6792" x2="87.6872" y2="153.002" gradientUnits="userSpaceOnUse">
<stop stop-color="#D62B37"/>
<stop offset="0.03181" stop-color="#D82C38" stop-opacity="0.96274"/>
<stop offset="0.19674" stop-color="#E3323B" stop-opacity="0.79582"/>
<stop offset="0.37001" stop-color="#EB363E" stop-opacity="0.66528"/>
<stop offset="0.55323" stop-color="#F13A40" stop-opacity="0.57255"/>
<stop offset="0.75294" stop-color="#F43B42" stop-opacity="0.51755"/>
<stop offset="1" stop-color="#F53C42" stop-opacity="0.5"/>
</linearGradient>
</defs>
</svg>
