<svg width="160" height="171" viewBox="0 0 160 171" fill="none" xmlns="http://www.w3.org/2000/svg">
<path d="M136.863 115.538L96.8006 116.439L21.9759 120.676L13.7994 119.125C13.7994 119.125 25.6215 86.8677 26.8871 83.0619C26.8871 83.0619 35.4932 61.2462 38.5306 43.9933C38.5306 43.9933 49.4148 -14.3581 96.4908 6.447C96.4908 6.447 116.994 -5.73159 127.114 40.4412C127.114 40.4412 128.126 62.2611 130.405 68.0923C130.405 68.0923 139.264 94.2256 136.226 111.732L136.863 115.538Z" fill="#490D0D"/>
<path d="M110.818 58.3898C110.818 71.732 105.673 83.4862 97.8655 90.3848C93.5685 94.4757 87.8853 96.7838 81.9593 96.8447C76.0333 96.9056 70.3041 94.7147 65.9244 90.7129L65.92 90.7041C57.9031 83.858 52.5919 71.9419 52.5919 58.3898C52.5919 37.1472 65.6276 19.9292 81.7051 19.9292C86.0079 19.952 90.2205 21.1677 93.8767 23.4419C103.875 29.5313 110.818 42.8909 110.818 58.3898Z" fill="#FFA787"/>
<g style="mix-blend-mode:multiply" opacity="0.4">
<g opacity="0.4" style="mix-blend-mode:multiply">
<path d="M94.498 23.5024C94.066 27.3733 97.0797 30.8608 100.039 33.8437C103.057 36.885 106.245 39.9274 107.957 43.6197C109.386 46.7025 109.78 50.2161 112.204 52.8208C113.254 53.9493 115.486 54.7846 116.491 53.6273L108.963 26.2784L94.498 23.5024Z" fill="#FFA787"/>
</g>
</g>
<g style="mix-blend-mode:multiply" opacity="0.4">
<g opacity="0.4" style="mix-blend-mode:multiply">
<path d="M86.4242 25.8913C81.4304 27.4299 77.0104 30.4319 73.7337 34.5107C66.0014 44.1795 65.5639 58.7242 56.3925 67.0336C55.1802 68.3029 53.5635 69.1079 51.8219 69.3092C48.7229 69.415 46.427 66.4193 45.3044 63.5221C43.1277 57.1744 43.0703 50.2892 45.1407 43.906C47.2144 37.5761 49.9679 31.4907 53.3528 25.7569C54.4802 23.305 56.0889 21.1058 58.0828 19.2908C59.9378 17.9842 62.0045 17.0093 64.1912 16.4091C68.877 14.8406 73.5846 13.3397 78.3141 11.9062C80.1235 11.2671 82.0142 10.8883 83.9298 10.7812C85.7969 10.7551 87.6303 11.2816 89.2003 12.2949C90.7703 13.3082 92.0073 14.7632 92.7563 16.4778C94.1148 19.9503 91.5973 23.164 88.3058 24.904" fill="#FFA787"/>
</g>
</g>
<path d="M92.0115 25.2179C88.817 24.8937 77.0057 23.8586 74.5958 26.0004L70.6689 21.5359C70.6689 21.5359 82.0302 14.5894 81.7047 14.2105C81.3791 13.8316 94.4833 14.842 94.4833 14.842L92.9713 19.932L100.142 28.6274C100.142 28.6274 96.4877 24.6601 93.4149 25.1443C92.9522 25.2292 92.4805 25.254 92.0115 25.2179Z" fill="#490D0D"/>
<path d="M136.864 115.538L96.8015 116.439C95.3701 106.168 94.3663 93.8887 97.1463 90.9928C97.1463 90.9928 106.817 80.2885 108.467 73.5474C108.467 73.5474 115.624 28.7394 93.8775 23.4419C93.6079 23.0995 93.3164 22.7751 93.0047 22.4707C92.0299 21.4854 90.9007 20.6667 89.6618 20.0473C85.3718 17.9475 78.2495 17.9782 70.4203 32.5758C70.4203 32.5758 65.4975 42.506 60.0511 53.1491C59.6845 53.8621 59.3179 54.5781 58.9513 55.2969C53.3914 66.1063 47.6046 77.0119 46.1251 78.4949C46.1251 78.4949 28.686 114.388 21.3324 118.132L21.3237 118.137L17.0337 134.257C13.8707 128.749 12.6761 122.325 13.6472 116.046C16.2133 102.231 26.1504 85.2797 26.888 83.0619C26.888 83.0619 35.4941 61.2463 38.5315 43.9933C38.5315 43.9933 49.4157 -14.3581 96.4917 6.447C96.4917 6.447 116.994 -5.7316 127.115 40.4412C127.115 40.4412 128.127 62.2611 130.405 68.0924C130.405 68.0924 139.265 94.2256 136.227 111.732L136.864 115.538Z" fill="#5E1212"/>
<path d="M100.144 112.416L79.8686 136.301C79.8686 136.301 56.1408 127.679 58.4582 121.603C62.2069 111.773 66.3093 88.5357 66.3093 88.5357L81.5488 79.603L93.9474 88.5357C93.7078 90.1675 93.6129 91.8173 93.6637 93.4658C93.6956 94.574 93.7889 95.6795 93.943 96.7773C94.7882 102.397 96.9099 107.748 100.144 112.416Z" fill="#FFA787"/>
<g opacity="0.4" style="mix-blend-mode:multiply">
<path d="M93.9429 96.7769C76.4383 105.246 66.2655 91.1907 65.925 90.7139C70.2789 94.593 75.8811 96.7703 81.7058 96.8469C85.924 96.8281 90.0575 95.6592 93.6636 93.4654C93.6955 94.5736 93.7887 95.6791 93.9429 96.7769Z" fill="#FFA787"/>
</g>
<path d="M156.468 184.29L104.334 183.673L51.8069 183.052L10.4828 182.562L11.9884 158.655L12.4859 150.798L13.9305 127.832C13.9305 127.832 17.0901 115.444 32.609 113.716L56.171 111.38L61.6305 110.837C61.6305 110.837 81.1732 135.61 99.8517 110.837C99.8517 110.837 102.614 110.584 106.83 110.522C107.018 110.522 107.21 110.518 107.406 110.518C119.665 110.391 143.022 111.914 147.844 124.949L156.468 184.29Z" fill="#FFBA55"/>
<path d="M106.83 110.521C82.9279 143.111 63.8042 122.691 56.1713 111.379L61.6308 110.836C61.6308 110.836 81.1735 135.609 99.852 110.836C99.852 110.836 102.615 110.583 106.83 110.521Z" fill="white"/>
<g opacity="0.4" style="mix-blend-mode:multiply">
<path d="M99.348 109.114C99.348 109.114 99.9122 135.875 106.527 144.737C106.527 144.737 116.826 132.426 117.462 131.562C118.099 130.698 118.751 105.243 118.533 105.332C118.315 105.421 99.348 109.114 99.348 109.114Z" fill="#FFBA55"/>
</g>
<g opacity="0.4" style="mix-blend-mode:multiply">
<path d="M61.5577 153.348L81.7059 163.847C81.7059 163.847 101.592 152.829 107.843 153.348L81.7059 167.544C81.7059 167.544 64.7743 153.546 61.5577 153.348Z" fill="#FFBA55"/>
</g>
<path d="M158.505 184.394L118.848 183.939L115.173 183.896L111.734 183.856C108.885 173.694 107.043 163.274 106.236 152.749C105.064 138.764 104.98 124.709 105.982 110.71C105.987 110.667 105.991 110.632 105.991 110.619C109.12 110.588 112.974 110.522 117.093 110.636C130.016 110.99 145.543 113.077 149.406 123.256L158.505 184.394Z" fill="#EC5640"/>
<path d="M159.352 184.288L144.82 128.618C144.175 126.15 142.792 123.938 140.856 122.28C138.921 120.623 136.526 119.598 133.992 119.344C123.152 118.255 106.83 117.354 106.83 117.354V110.604C106.834 110.56 106.839 110.525 106.839 110.512C109.968 110.481 113.821 110.416 117.941 110.53C130.863 110.884 146.391 112.971 150.253 123.15L159.352 184.288Z" fill="#EC5640"/>
<path d="M55.3853 183.095L51.5842 183.178L0 184.289L1.34853 175.435L5.21954 167.176L5.91779 165.689L5.77813 165.365L1.34853 155.129C1.34853 155.129 1.36598 155.12 1.4009 155.107L2.26936 154.77L2.34354 154.744L12.4858 150.798H14.7246C20.1903 150.797 25.6019 151.883 30.6464 153.992C35.6908 156.101 40.2678 159.192 44.1127 163.086C44.3658 163.335 44.6102 163.589 44.8503 163.847C48.7554 168.001 51.76 172.921 53.6746 178.296L55.3853 183.095Z" fill="#376F92"/>
<g style="mix-blend-mode:multiply">
<path d="M47.7071 139.783C47.4606 147.873 46.5041 155.925 44.8486 163.847C44.6085 163.589 44.3641 163.335 44.111 163.086C45.6819 155.407 46.5929 147.608 46.8342 139.774C46.8342 139.716 46.8457 139.659 46.868 139.606C46.8902 139.553 46.9228 139.505 46.9639 139.465C47.0049 139.424 47.0536 139.393 47.107 139.371C47.1604 139.35 47.2175 139.34 47.275 139.341C47.3904 139.343 47.5003 139.391 47.5811 139.473C47.6619 139.556 47.7072 139.667 47.7071 139.783Z" fill="#FFBA55"/>
</g>
<path d="M93.0839 93.7998C93.0839 93.7998 88.3475 132.562 115.848 124.686C115.848 124.686 92.1338 129.416 95.1824 92.4888L93.0839 93.7998Z" fill="#5E1212"/>
<path d="M96.4637 92.5533C96.4637 92.5533 87.2565 130.208 139.094 113.686C136.68 112.893 134.548 111.415 132.956 109.431C131.365 107.446 130.383 105.041 130.13 102.508C128.867 93.3297 126.343 79.6091 127.605 75.0801H108.668L96.4637 92.5533Z" fill="#5E1212"/>
<path d="M107.843 53.926C107.843 53.926 116.151 50.0997 117.774 54.4068C117.774 54.4068 120.257 59.6711 116.246 66.1796C116.246 66.1796 111.591 73.9228 107.843 75.081C107.843 75.0811 108.607 55.3617 107.843 53.926Z" fill="#FFA787"/>
<path d="M93.0045 22.4697C92.0297 21.4843 90.9004 20.6656 89.6615 20.0462C88.5605 19.0487 87.2425 18.3223 85.8124 17.9246C83.7748 17.615 81.6921 17.8349 79.7637 18.5633C76.0295 19.4639 72.5291 21.1504 69.4948 23.5108C66.8365 25.8938 64.7647 28.8614 63.4418 32.1811C61.9263 35.8181 60.9019 39.6416 60.3956 43.5504C59.9603 46.7299 59.8448 49.9453 60.0508 53.148C60.1119 54.1192 60.2036 55.0888 60.3258 56.057C60.9274 60.1877 61.7844 64.277 62.8919 68.3012C64.8863 76.1797 66.968 84.4693 65.2267 92.6015C64.4863 95.9514 63.0897 99.1207 61.118 101.925C59.1462 104.73 56.6385 107.115 53.7403 108.94C53.61 109.025 53.4632 109.081 53.3097 109.104C53.1562 109.128 52.9995 109.118 52.85 109.076C52.6143 108.927 52.802 108.757 52.9765 108.643C53.703 108.185 54.4038 107.687 55.0757 107.151C57.8596 104.931 60.1402 102.142 61.7659 98.9708C63.4959 95.5262 64.455 91.7447 64.5764 87.8902C64.9299 79.3206 62.0627 71.1096 60.221 62.8593C59.6506 60.3652 59.2265 57.8397 58.9511 55.2958C58.7684 53.6048 58.6795 51.9049 58.6848 50.2039C58.6985 46.001 59.2559 41.8177 60.3432 37.7585C61.2337 34.1927 62.6974 30.7959 64.6768 27.7016C66.7426 24.6119 69.5907 22.1284 72.9294 20.5055C74.65 19.6762 76.4315 18.9801 78.258 18.4233C80.1754 17.7447 82.1688 17.3054 84.1932 17.1153C85.995 17.0174 87.7825 17.4837 89.308 18.4496C90.8529 19.4032 93.3012 22.356 93.0045 22.4697Z" fill="#C47076"/>
<path d="M94.9214 7.73916C90.5251 4.8262 85.9492 1.86852 80.7705 0.592662C78.2965 -0.0376286 75.722 -0.166769 73.1976 0.212814C70.7232 0.637994 68.3371 1.47531 66.1384 2.69007C63.6152 4.0947 61.2511 5.76887 59.0872 7.68334C58.8933 7.84975 58.9725 8.03703 59.1979 8.09741C59.3439 8.12286 59.4938 8.11612 59.637 8.07766C59.7802 8.0392 59.9133 7.96995 60.0271 7.87471C63.6418 4.7723 67.7815 1.86655 72.5417 0.947463C77.4841 -0.00682354 82.3803 1.59627 86.729 3.87668C89.2223 5.22857 91.645 6.70717 93.9878 8.3067C94.3047 8.51664 95.3881 8.04832 94.9214 7.73916Z" fill="#5E1212"/>
<path d="M43.3393 31.4627C42.0639 37.4004 40.2579 43.2109 37.9432 48.824C35.6007 54.5651 32.7322 60.0762 29.3745 65.2864C27.662 67.9168 25.8607 70.489 24.2007 73.1538C19.4833 80.6632 16.4323 89.1018 15.2546 97.8971C14.465 103.694 14.4982 109.574 15.3532 115.361C15.4604 116.08 15.5806 116.796 15.714 117.511C15.7938 117.941 16.9715 117.654 16.8867 117.196C15.8198 111.416 15.5893 105.512 16.2022 99.6661C16.8078 93.8474 18.2262 88.1429 20.4158 82.7199C21.5219 79.9908 22.8276 77.3473 24.3225 74.8111C25.9315 72.0782 27.7338 69.4674 29.4885 66.8282C32.9021 61.6872 35.8549 56.2533 38.3126 50.5904C40.7088 45.0979 42.6145 39.4033 44.0073 33.5735C44.1849 32.8267 44.3542 32.0781 44.5151 31.3274C44.6163 30.8577 43.4312 31.0359 43.3393 31.4627L43.3393 31.4627Z" fill="#5E1212"/>
<path d="M121.191 46.7821C123.808 56.753 126.951 66.578 130.606 76.2156C132.479 80.9639 134.66 85.5838 137.137 90.0453C139.606 94.4469 142.556 98.6824 143.677 103.686C144.768 109.398 144.241 115.302 142.158 120.73C142.098 120.898 143.21 120.795 143.311 120.51C145.108 115.731 145.765 110.596 145.228 105.518C144.883 102.984 144.147 100.521 143.046 98.2144C141.956 95.8893 140.612 93.6981 139.317 91.4848C134.27 82.5252 130.23 73.0318 127.271 63.1789C125.511 57.6457 123.936 52.0562 122.363 46.4672C122.299 46.2377 121.127 46.5558 121.191 46.7821V46.7821Z" fill="#5E1212"/>
<path d="M97.2061 9.05923C102.754 10.2336 107.793 13.1283 111.608 17.3331C115.683 21.8519 118.603 27.295 120.116 33.1946C121.049 36.6594 121.659 40.2037 121.937 43.7817C121.959 44.0369 122.547 43.8984 122.524 43.6242C122.102 37.1528 120.439 30.8238 117.625 24.9845C115.031 19.7158 111.051 15.2571 106.114 12.0897C103.449 10.416 100.5 9.24895 97.4131 8.64708C97.134 8.59369 96.816 8.98461 97.2061 9.05923H97.2061Z" fill="#C47076"/>
<path d="M107.513 16.9293C112.392 21.5712 115.891 27.4791 117.62 33.9955C118.096 35.7972 118.432 37.6331 118.625 39.4869C118.654 39.7649 119.242 39.6204 119.211 39.3294C118.486 32.5662 115.903 26.1372 111.751 20.7574C110.598 19.2696 109.331 17.8738 107.963 16.5828C107.767 16.3974 107.262 16.6923 107.513 16.9293H107.513Z" fill="#C47076"/>
<path d="M77.9447 65.7547C76.8611 67.408 76.0679 69.235 75.5994 71.1566C75.5537 71.5684 75.6548 71.9832 75.885 72.3274C76.1151 72.6716 76.4594 72.923 76.8568 73.0371C78.3318 73.525 79.8692 73.7977 81.4217 73.8467C81.7005 73.8348 81.9726 73.7575 82.2163 73.6212C82.4599 73.485 82.6684 73.2934 82.8249 73.0619C82.9814 72.8303 83.0817 72.5653 83.1177 72.2879C83.1537 72.0106 83.1245 71.7286 83.0323 71.4647L81.1898 66.0749C81.0782 65.7493 80.8756 65.4627 80.6061 65.2492C80.3366 65.0356 80.0117 64.9042 79.6698 64.8705C79.328 64.8367 78.9836 64.9021 78.6778 65.0589C78.372 65.2157 78.1175 65.4572 77.9447 65.7547Z" fill="#FF8D69"/>
<path d="M114.995 54.659C116.082 55.9401 119.565 61.383 109.771 70.1603L110.509 65.2018C110.714 63.8199 110.714 62.4151 110.507 61.0334L109.771 56.1035C110.269 55.3696 110.977 54.8038 111.802 54.4801C112.627 54.1564 113.53 54.09 114.393 54.2895C114.629 54.3417 114.841 54.4718 114.995 54.659Z" fill="#FF8D69"/>
<path d="M5.21869 167.176L5.91694 165.688L5.77728 165.365C8.90637 166.174 14.3223 168.466 19.9564 174.945C19.9564 174.945 11.8653 168.545 5.21869 167.176Z" fill="#376F92"/>
<path d="M55.3859 183.095L51.5848 183.178C32.6705 146.52 7.6029 152.906 2.34412 154.744L12.4864 150.798H14.7252C20.1909 150.797 25.6025 151.883 30.6469 153.992C35.6913 156.101 40.2684 159.192 44.1133 163.086C44.3664 163.335 44.6108 163.589 44.8509 163.847C48.756 168.001 51.7605 172.921 53.6752 178.296L55.3859 183.095Z" fill="#376F92"/>
<path d="M129.412 183.945C129.412 183.945 137.888 143.682 136.863 136.3L129.412 183.945Z" fill="#376F92"/>
<path d="M99.3474 74.9749C99.9679 74.9749 100.471 74.4707 100.471 73.8488C100.471 73.2268 99.9679 72.7227 99.3474 72.7227C98.7269 72.7227 98.2239 73.2268 98.2239 73.8488C98.2239 74.4707 98.7269 74.9749 99.3474 74.9749Z" fill="#5E1212"/>
<path d="M90.7806 46.6241L92.6345 50.7394C92.6345 50.7394 105.164 44.5453 109.507 47.8488C109.507 47.8487 99.2259 41.683 90.7806 46.6241Z" fill="#5E1212"/>
<path d="M72.885 45.5269L71.0312 49.6422C71.0312 49.6422 58.5014 43.4481 54.1583 46.7516C54.1583 46.7516 64.4398 40.5858 72.885 45.5269Z" fill="#5E1212"/>
</svg>
