<svg width="177" height="164" viewBox="0 0 177 164" fill="none" xmlns="http://www.w3.org/2000/svg">
<path d="M85.3311 106.097C83.1396 108.522 80.3485 110.325 77.2396 111.324C75.2001 112.06 73.0883 112.576 70.9399 112.865L70.7097 113.017L68.692 114.38L59.6307 120.485L59.1622 120.798L54.0707 124.229C46.5997 128.39 37.0576 141.699 37.0576 141.699C39.7821 140.274 59.6348 137.629 65.2935 136.9C66.0661 136.801 66.6743 136.739 66.8756 136.723L66.8962 136.719C66.9125 136.717 66.929 136.715 66.9455 136.715C66.9455 136.715 66.1483 138.783 65.9428 139.598C64.5861 146.433 63.5821 153.334 62.9347 160.272L58.4924 165.817C40.793 166.649 7.32575 158.888 7.32575 158.888C5.48006 158.268 3.83731 157.156 2.57312 155.672C1.30893 154.188 0.470815 152.388 0.148373 150.463C-0.174069 148.539 0.0312812 146.563 0.742474 144.746C1.45367 142.93 2.64395 141.341 4.18611 140.15L50.5406 104.021L55.0117 99.3825C56.1171 94.1141 61.9731 86.1311 61.9731 86.1311C62.4804 82.8755 64.1909 79.9302 66.7647 77.8804L66.7688 77.8762C67.6024 77.1451 68.4913 76.4799 69.4276 75.8867C73.4097 73.3451 78.0821 72.0723 81.0615 72.7231C85.323 73.6582 83.6628 81.2581 83.6628 81.2581L83.9052 84.8665L84.0079 86.3701L84.0203 86.5842L85.3311 106.097Z" fill="#FFA787"/>
<g style="mix-blend-mode:multiply" opacity="0.4">
<g opacity="0.4" style="mix-blend-mode:multiply">
<path d="M85.3322 106.095C83.1407 108.521 80.3496 110.324 77.2408 111.323C77.1627 111.277 77.0846 111.232 77.0066 111.183C76.7572 111.055 76.5512 110.855 76.4148 110.61C76.3065 110.293 76.3051 109.948 76.4107 109.63C77.1586 106.223 78.7448 102.78 77.9188 99.3936C77.4798 97.9243 76.8113 96.534 75.9381 95.2744C74.0472 92.4835 72.4027 89.5326 71.0232 86.4552C69.6405 83.3513 69.2625 79.8912 69.9425 76.5609L66.9179 79.0943C67.2302 78.9954 67.1028 79.6751 66.7905 79.5762C66.4782 79.4773 66.4289 79.053 66.4864 78.7318C66.5371 78.4353 66.6312 78.1479 66.7658 77.8791L66.7699 77.875C67.0342 77.3634 67.4107 76.9186 67.8713 76.574C68.3318 76.2294 68.8643 75.9939 69.4287 75.8854C69.961 75.7753 70.5124 75.8022 71.0314 75.9636C73.6532 76.7999 74.3971 80.1858 76.46 82.0148C77.9659 83.04 79.5865 83.8847 81.2886 84.5316C82.2933 85.0799 83.2137 85.7708 84.0214 86.5829L85.3322 106.095Z" fill="#FFA787"/>
</g>
</g>
<path d="M140.682 53.9552C140.156 55.1786 139.635 59.2071 138.587 61.6581C137.627 63.726 136.922 65.9032 136.487 68.1417C135.965 70.7656 132.994 74.9672 132.295 76.8949C131.596 78.8227 128.802 81.0965 127.577 82.324C126.357 83.5515 119.926 84.9891 119.926 84.9891L119.03 87.9756C117.179 94.138 113.398 99.5391 108.245 103.379C103.093 107.219 96.8443 109.294 90.424 109.296C89.6404 109.296 88.8668 109.12 88.1597 108.782C87.4507 108.445 86.8269 107.952 86.335 107.34C84.2638 104.769 80.7051 100.333 79.1887 98.2653C78.937 97.9404 78.7051 97.6007 78.4942 97.2478C78.4696 97.1943 78.4572 97.1572 78.4655 97.1448C78.6586 96.8606 67.6535 78.4726 67.6535 77.9453C67.6112 77.7003 67.5535 77.4582 67.4809 77.2204C67.3577 76.7673 67.1769 76.1247 66.955 75.3585C65.644 70.8109 62.9359 61.8394 62.9359 61.308C62.9359 60.6077 63.9838 47.1256 65.0317 46.9485C66.0796 46.7755 77.434 42.2197 76.9121 41.6966C76.3861 41.1694 79.7066 35.7403 79.7066 35.7403L81.2805 31.5387L89.6638 29.0878C89.6638 29.0878 100.147 29.9611 100.846 29.0878C101.544 28.2104 112.553 26.9829 112.553 26.9829C112.553 26.9829 119.786 29.7881 119.926 32.0619C120.065 34.3398 124.783 38.1912 126.008 40.119C127.228 42.0468 137.189 47.6489 137.189 47.6489L138.759 49.0494C138.759 49.0494 141.204 52.7277 140.682 53.9552Z" fill="#FFA787"/>
<g style="mix-blend-mode:multiply" opacity="0.4">
<g opacity="0.4" style="mix-blend-mode:multiply">
<path d="M63.5961 63.1559C63.7276 61.099 64.4947 59.1341 65.7909 57.5341C67.0871 55.934 68.8481 54.778 70.8294 54.2267C75.5681 52.949 80.9535 55.149 85.413 53.1373C90.9481 50.6404 91.9261 43.2551 96.4623 39.2935C96.8877 38.8605 97.4415 38.577 98.0409 38.4856C99.0193 38.4178 99.8053 39.2056 100.483 39.8929C102.442 41.8723 104.712 43.515 107.203 44.755C108.206 45.1913 109.167 45.7191 110.073 46.3318C110.839 46.9693 111.546 47.6736 112.188 48.4363C114.535 50.9637 117.331 53.0318 120.433 54.5353C121.507 55.1727 122.696 55.5899 123.932 55.7626C125.168 55.9353 126.426 55.8601 127.633 55.5413C128.921 54.9638 129.994 53.9931 130.699 52.768C131.404 51.5428 131.705 50.1257 131.559 48.719C131.173 45.9145 129.912 43.3039 127.958 41.2598C125.838 38.9146 123.531 36.7453 121.061 34.7733C115.181 29.8119 109.002 24.6951 101.448 22.8319C97.6443 22.0272 93.7539 21.7092 89.8702 21.8856C88.1889 21.8346 86.5089 22.0225 84.8802 22.4438C82.6767 23.2417 80.691 24.5471 79.083 26.255C74.8047 30.3717 71.4677 35.3694 69.3021 40.9035C68.3744 43.2891 67.5119 45.9675 65.2686 47.2969C64.4706 47.7698 63.5472 48.0322 62.7918 48.5667C60.7179 50.0344 60.5768 52.9312 60.6318 55.4203C60.6998 58.4987 60.9408 61.9571 63.3263 63.9892L63.5961 63.1559Z" fill="#FFA787"/>
</g>
</g>
<path d="M169.615 170.508C169.615 170.508 162.386 167.088 156.468 167.77L142.234 157.766C142.234 157.766 153.108 144.551 154.175 144.319C155.241 144.087 163.343 151.809 163.557 152.437C163.77 153.064 169.615 170.508 169.615 170.508Z" fill="#27848B"/>
<path d="M169.616 170.506L169.612 170.494C169.555 170.262 169.479 170.035 169.386 169.814C167.99 167.307 166.156 165.072 163.97 163.215C162.696 162.025 161.463 160.975 160.567 160.233C159.729 159.545 159.191 159.125 159.191 159.125L157.719 161.901L155.114 166.82L149.488 177.435H56.7917C56.3823 172.245 57.8256 167.079 60.8642 162.857C61.4804 161.947 62.1675 161.088 62.9189 160.287L62.9354 160.27C62.4618 153.908 63.2495 147.514 65.2531 141.458C65.7996 139.666 66.3667 138.06 66.8763 136.721C67.8544 134.146 68.6228 132.569 68.6228 132.569H78.2389C86.655 130.76 101.844 124.133 101.844 124.133L102.633 123.815L103.985 123.272L104.079 123.235L107.987 121.665L111.439 120.281L129.467 113.052L131.074 112.409L131.14 112.381C131.205 112.315 131.271 112.249 131.337 112.187C137.76 105.749 143.854 104.55 149.077 105.736C150.468 106.055 151.818 106.531 153.1 107.157C156.1 108.669 158.82 110.683 161.143 113.114C161.948 113.934 162.659 114.733 163.267 115.458C164.145 116.491 164.959 117.578 165.704 118.712C169.51 123.618 169.629 163.01 169.616 170.506Z" fill="#D2F1F9"/>
<path d="M107.987 121.666L106.843 128.024L75.3043 134.382L68.6223 132.57H78.2384C86.6545 130.761 101.843 124.133 101.843 124.133L107.987 121.666Z" fill="#D2F1F9"/>
<path d="M131.18 112.604L129.981 113.774L115.754 127.622C112.437 134.019 82.5822 152.436 82.5822 152.436C81.0494 150.9 103.249 132.228 103.249 132.228C104.884 126.815 103.844 117.979 102.891 112.336C102.353 109.177 101.843 107.018 101.843 107.018C105.939 105.323 109.607 102.734 112.579 99.4402C115.552 96.1462 117.755 92.2296 119.029 87.9752L119.925 84.9888C119.501 91.3735 131.18 112.604 131.18 112.604Z" fill="#FFA787"/>
<path d="M160.599 159.829C160.591 159.965 160.579 160.097 160.567 160.233C160.323 162.77 159.822 165.275 159.071 167.709C158.051 171.046 156.773 174.297 155.249 177.435H118.276C125.838 160.567 131.854 144.881 132.039 144.316C132.039 144.316 132.721 144.559 133.876 144.996H133.884C136.765 146.079 142.563 148.328 148.024 150.87C154.645 153.947 160.768 157.457 160.599 159.829Z" fill="#FFA787"/>
<g opacity="0.4" style="mix-blend-mode:multiply">
<path d="M160.601 159.829C160.593 159.965 160.58 160.097 160.568 160.233C160.325 162.77 159.824 165.275 159.072 167.709C158.052 171.046 156.775 174.297 155.25 177.435H150.664C152.752 173.937 154.765 170.621 156.532 167.808C156.541 167.792 156.553 167.779 156.561 167.763C157.647 166.016 158.059 163.931 157.72 161.901C157.53 160.739 157.102 159.629 156.465 158.641C155.827 157.652 154.992 156.806 154.013 156.155L146.888 152.205L133.877 144.996H133.885C136.766 146.079 142.565 148.328 148.026 150.87C154.646 153.947 160.769 157.457 160.601 159.829Z" fill="#FFA787"/>
</g>
<path d="M143.682 58.5273C142.971 60.2985 141.751 61.8432 141.2 63.668C140.009 67.6183 142.043 72.446 139.552 75.729C137.617 78.2788 132.312 77.2201 130.61 79.9306C127.59 84.7459 116.815 85.7263 119.926 84.9889C121.002 84.7336 139.672 61.7403 128.617 56.4512C128.617 56.4512 127.364 58.9104 122.839 57.8064C122.839 57.8064 102.6 42.5737 99.2799 34.0264C99.1535 33.668 98.9403 33.3467 98.6594 33.0913C98.6389 33.3673 98.6183 33.6433 98.5977 33.9151L94.7513 33.7586C91.9571 35.7773 89.5064 38.2352 87.4941 41.0372C85.4434 43.9042 84.3092 47.3684 82.1395 50.1447C79.9656 52.9211 76.0821 54.9312 72.9343 53.3454C72.417 53.0162 71.8607 52.7533 71.2782 52.5627C70.745 52.5064 70.2059 52.5679 69.699 52.743C69.192 52.9181 68.7295 53.2024 68.344 53.576C67.0427 54.6336 65.9877 55.9635 65.253 57.4727C64.5183 58.9819 64.1216 60.6338 64.0908 62.3128C64.0456 66.0407 65.8126 69.5214 67.6126 72.7838C68.8734 74.6873 69.674 76.8593 69.9508 79.1273C70.033 81.4052 68.6482 83.9138 66.4003 84.2475C65.715 84.3005 65.026 84.2164 64.3734 84C63.7208 83.7836 63.1176 83.4392 62.5991 82.987C61.4434 82.0777 60.5074 80.9187 59.8606 79.5964C59.2138 78.2742 58.873 76.8227 58.8635 75.35C60.4416 77.9451 62.5086 80.8409 65.5373 80.9562C65.871 80.9954 66.2077 80.9136 66.4866 80.7256C66.653 80.5415 66.7763 80.3224 66.8474 80.0843C66.9185 79.8463 66.9356 79.5953 66.8975 79.3498C67.0652 76.0716 66.1935 72.8244 64.4071 70.0734C63.5022 69.0179 62.5406 68.0127 61.5264 67.0622C59.5437 64.9261 58.1222 62.3293 57.3897 59.5056C56.6573 56.6818 56.637 53.7198 57.3307 50.8862C57.5972 50.1384 57.6968 49.3412 57.6225 48.5507C57.3208 47.6757 56.8471 46.8703 56.2293 46.1821C55.4102 44.8501 54.9892 43.3107 55.0161 41.7461C55.0431 40.1816 55.5169 38.6576 56.3814 37.3547C57.2707 36.0715 58.408 34.9804 59.726 34.1462C61.0439 33.3119 62.5156 32.7515 64.0537 32.4982C64.4688 32.42 64.888 32.3582 65.3112 32.3046C65.3366 28.6447 66.7329 25.1279 69.2234 22.4514C70.5093 21.1128 72.1286 20.1428 73.9138 19.6417C75.699 19.1406 77.5854 19.1265 79.3778 19.601C80.4315 18.0094 81.7378 16.6013 83.2448 15.4324C85.4428 13.6963 87.9967 12.4692 90.7235 11.8389C93.4503 11.2087 96.2824 11.1909 99.0168 11.7869C101.528 8.33911 106.258 7.06627 110.466 7.713C114.654 8.58652 118.581 10.4303 121.931 13.0968C122.198 15.9638 125.498 17.2778 128.079 18.5424C131.004 19.9764 133.567 22.0565 135.574 24.6264C135.925 24.9887 136.198 25.4188 136.377 25.8906C136.556 26.3623 136.636 26.8657 136.614 27.3698C136.516 27.9589 136.154 28.4902 136.096 29.0834C135.932 30.8258 138.143 31.629 139.4 32.8442C141.151 34.529 141.093 37.3218 140.715 39.7232C140.337 42.1247 139.795 44.7281 140.933 46.8783C141.426 47.672 141.971 48.4316 142.565 49.1521C143.508 50.5009 144.104 52.063 144.299 53.6988C144.494 55.3347 144.282 56.9935 143.682 58.5273Z" fill="#5E1212"/>
<path d="M176.939 68.8537C176.912 69.8928 176.678 70.916 176.248 71.8622C175.819 72.8084 175.204 73.6582 174.44 74.3611C173.663 75.0505 172.719 75.5238 171.702 75.7341C170.686 75.9444 169.632 75.8843 168.646 75.5598C168.249 75.4447 167.884 75.238 167.58 74.9562C167.277 74.6743 167.044 74.3252 166.899 73.9368C166.686 73.1418 167.29 72.1326 168.112 72.2026C168.228 72.8996 168.543 73.5477 169.02 74.0686C169.401 74.3839 169.847 74.6114 170.325 74.7349C170.804 74.8585 171.304 74.8751 171.79 74.7835C172.275 74.6919 172.735 74.4945 173.136 74.2051C173.538 73.9157 173.87 73.5414 174.111 73.1088C174.528 72.1902 174.635 71.1605 174.416 70.1756C174.196 69.1907 173.662 68.3043 172.895 67.6509C172.283 67.1102 171.562 66.7078 170.782 66.4711C170.001 66.2344 169.179 66.169 168.371 66.2792C165.079 66.7406 162.868 69.9947 162.009 73.2118C161.36 75.6463 161.491 78.7439 163.636 80.0579C164.051 80.2472 164.428 80.5095 164.75 80.8323C164.954 81.2034 165.026 81.6333 164.952 82.0507C164.879 82.4681 164.666 82.8477 164.347 83.1267C163.76 83.7363 162.967 84.1029 162.33 84.6632C161.441 85.5638 160.924 86.7675 160.882 88.0336C160.84 89.2997 161.276 90.5351 162.104 91.4928C162.981 92.4074 164.103 93.048 165.336 93.3374C166.568 93.6269 167.857 93.5527 169.049 93.124C170.229 92.6687 171.307 91.9842 172.223 91.1098C173.138 90.2353 173.872 89.1882 174.383 88.0285C174.494 90.1111 173.877 92.1674 172.639 93.8433C171.4 95.5192 169.618 96.7098 167.598 97.2102C172.262 98.5613 174.781 104.472 172.998 108.999C171.991 111.223 170.277 113.049 168.124 114.192C165.972 115.335 163.502 115.731 161.101 115.318C160.545 115.278 160.005 115.113 159.522 114.836C159.038 114.558 158.623 114.176 158.306 113.716C160.23 113.126 162.247 112.899 164.253 113.048C166.262 112.958 168.522 112.291 169.357 110.458C169.66 109.564 169.689 108.599 169.438 107.689C169.188 106.778 168.669 105.965 167.951 105.354C166.494 104.16 164.879 103.174 163.151 102.425C161.192 101.385 159.362 100.117 157.698 98.6478C155.598 96.7941 153.671 94.3639 153.663 91.5546C153.659 90.4259 153.971 89.3137 153.955 88.1892C153.99 87.6251 153.866 87.0623 153.597 86.5654C153.328 86.0686 152.925 85.6577 152.434 85.3799C150.268 84.4696 148.575 87.5795 146.319 88.2345C149.021 90.5405 151.247 93.353 152.874 96.5141C153.674 98.0996 154.124 99.8396 154.193 101.615C154.262 103.391 153.948 105.161 153.272 106.804C152.874 107.722 152.292 108.55 151.562 109.235C150.833 109.92 149.972 110.448 149.031 110.787C148.081 111.104 147.059 111.13 146.094 110.861C145.129 110.593 144.266 110.042 143.615 109.279C145.544 108.8 147.288 107.759 148.629 106.289C150.856 103.834 151.419 99.3481 148.641 97.5356C146.816 96.3411 144.223 96.7324 142.534 95.3484C141.654 94.4853 141.008 93.4103 140.661 92.226C139.304 88.7082 137.947 85.1904 136.588 81.6726C136.392 85.135 136.669 88.6079 137.41 91.9953C136.502 92.3866 135.495 91.4928 135.244 90.5371C135.116 89.5553 135.059 88.5655 135.072 87.5754C134.865 86.5854 134.453 85.6498 133.864 84.829C133.274 84.0081 132.52 83.3202 131.648 82.8096C129.984 81.6685 128.106 80.8447 126.549 79.5636C125.032 78.3155 123.935 75.7781 125.46 74.5382C126.028 74.1658 126.668 73.9161 127.338 73.805C132.77 72.3303 135.996 66.6912 137.496 61.2539C138.972 56.1112 139.322 50.7098 138.522 45.4191C137.723 40.1283 135.793 35.073 132.865 30.5989C128.792 24.6878 122.616 19.7201 121.326 12.6886C121.305 12.5939 121.289 12.495 121.272 12.3962L121.215 12.1532C121.202 11.9389 121.198 11.7206 121.198 11.5064C121.19 9.08729 121.941 6.72685 123.346 4.76006C124.752 2.79327 126.739 1.32003 129.027 0.549395C129.674 0.246109 130.389 0.115566 131.102 0.170415C131.912 0.346046 132.659 0.739024 133.263 1.30732C135.414 3.04258 137.305 5.07911 138.877 7.35429C139.569 8.57715 140.503 9.6453 141.622 10.4931C143.595 11.7125 146.118 11.1769 148.431 11.2593C154.193 11.4652 159.605 16.8984 158.73 22.6118C158.426 24.6096 157.435 26.5867 157.871 28.564C158.319 30.5948 160.127 31.987 161.808 33.1981C164.162 34.8952 166.514 36.5895 168.864 38.2812C169.643 38.7595 170.307 39.4053 170.807 40.1719C172.147 42.6104 169.829 45.4362 167.549 47.0221C165.688 48.3154 163.709 49.4298 161.639 50.3503C160.126 50.8406 158.762 51.7097 157.678 52.8754C156.067 55.0504 157.082 58.4075 159.264 60.0057C161.583 61.4568 164.379 61.9361 167.047 61.3403C168.154 61.0921 169.283 60.9555 170.417 60.9325C174.21 61.0849 177.099 65.0517 176.939 68.8537Z" fill="#5E1212"/>
<path d="M99.1071 36.0775C99.7834 34.7897 99.9735 33.3006 99.6425 31.8836C99.3116 30.4666 98.4818 29.2168 97.3056 28.3638C94.5574 26.4778 91.2206 25.6539 87.913 26.0446C84.3661 26.3385 80.9085 27.3119 77.7277 28.9121C74.5967 30.3775 71.6505 32.2107 68.9512 34.3732C66.323 36.4288 64.2452 39.1065 62.9043 42.1658C61.6688 45.2613 61.068 48.5746 61.1377 51.908C61.1479 53.5445 61.342 55.1675 61.4084 56.8009C61.568 58.4024 61.3141 60.0182 60.671 61.4929C59.8451 62.7363 58.7973 63.8162 57.5802 64.6781C57.0056 65.1346 56.5329 65.7067 56.1924 66.3575C55.8519 67.0083 55.6512 67.7234 55.6034 68.4567C55.5329 71.7148 58.0874 74.6095 60.1466 76.8636C62.4317 79.3634 65.0356 81.5504 67.8909 83.3681C68.5914 83.8138 69.3058 84.2358 70.0342 84.6343C70.4009 84.8358 71.3978 84.3217 70.8994 84.0478C66.6407 81.7184 62.8714 78.5858 59.7988 74.8225C58.7312 73.6106 57.8583 72.2395 57.2117 70.7584C56.8834 70.0667 56.7174 69.3088 56.7265 68.5428C56.7356 67.7769 56.9196 67.0232 57.2642 66.3395C58.1072 65.2291 59.1095 64.2499 60.2385 63.4337C61.2979 62.4802 62.028 61.2141 62.3233 59.8179C62.5739 58.3278 62.6135 56.8098 62.4411 55.3087C62.112 52.1248 62.2497 48.9097 62.8501 45.7659C63.5015 42.6175 64.9518 39.6906 67.0609 37.268C69.2655 34.9326 71.8135 32.9489 74.6164 31.3857C77.5404 29.5711 80.7177 28.2032 84.0438 27.3269C87.24 26.4491 90.6202 26.5068 93.7848 27.493C96.5497 28.4688 99.009 30.8947 98.7217 34.0415C98.6609 34.7382 98.436 35.4105 98.0653 36.003C97.9216 36.2338 98.1907 36.3778 98.383 36.3976C98.521 36.4114 98.6603 36.3891 98.7871 36.333C98.914 36.2768 99.0242 36.1888 99.1071 36.0773L99.1071 36.0775Z" fill="#C47076"/>
<path d="M98.6254 38.4038C99.4113 36.5748 100.296 33.4835 98.2324 32.1336C97.5903 31.7734 96.8732 31.5683 96.1382 31.5346C95.3077 31.4382 94.4762 31.3465 93.6426 31.2819C91.9482 31.1154 90.2393 31.174 88.5603 31.4562C85.584 32.0082 82.9403 33.703 81.1922 36.1798C80.3299 37.2726 79.8351 38.611 79.7788 40.0032C79.7226 41.3953 80.1077 42.7695 80.8789 43.9286C81.7752 44.9861 83.0221 45.6838 84.3906 45.8934C85.8935 45.9837 87.3218 46.581 88.4432 47.5881C88.6531 47.7775 88.8137 48.0155 88.911 48.2813C89.0083 48.5471 89.0394 48.8327 89.0016 49.1133C88.9637 49.3939 88.8581 49.6609 88.6938 49.8913C88.5296 50.1216 88.3117 50.3083 88.0591 50.435C86.9811 50.7103 85.8569 50.7521 84.7614 50.5577C83.5376 50.4303 82.3009 50.5302 81.1133 50.8523C79.8937 51.221 78.7565 51.822 77.7639 52.6223C75.7545 54.2507 74.3255 56.4879 73.691 58.9987C72.2854 64.5485 75.4297 70.1728 79.3957 73.8338C79.9288 74.3258 80.4837 74.7919 81.0604 75.232C81.4413 75.5243 82.4119 74.9829 81.9135 74.6005C77.7301 71.3908 74.1571 66.3505 74.5038 60.8391C74.7951 56.2083 78.5888 51.0856 83.6045 51.2995C85.4718 51.3792 88.2834 52.0001 89.6375 50.2707C89.9786 49.8169 90.1515 49.2582 90.1267 48.6905C90.1019 48.1228 89.8808 47.5815 89.5014 47.1593C88.6041 46.1773 87.3904 45.5436 86.0734 45.3693C84.6786 45.2558 83.3486 44.7308 82.2512 43.8604C81.3453 42.9078 80.8449 41.639 80.856 40.323C80.9697 38.8964 81.4397 37.5215 82.2227 36.3248C83.0056 35.1281 84.0763 34.1481 85.3362 33.475C88.1144 32.0769 91.2698 31.6194 94.3294 32.1711C95.5891 32.2983 97.3429 32.207 98.0452 33.4858C98.4605 34.4961 98.4931 35.6237 98.1368 36.6564C97.9921 37.2134 97.8031 37.7578 97.5717 38.2846C97.3246 38.8596 98.4349 38.8477 98.6256 38.404L98.6254 38.4038Z" fill="#C47076"/>
<path d="M124.303 59.8214C124.303 59.8214 129.51 49.3157 133.192 62.1679C133.192 62.1679 137.829 73.6271 122.943 81.6194L124.303 59.8214Z" fill="#FFA787"/>
<path d="M125.453 61.2819C125.453 61.2819 129.187 56.7867 130.872 61.8991C130.872 61.8991 134.965 71.6948 124.572 77.9954L125.453 61.2819Z" fill="#FFA787"/>
<path d="M134.255 25.7633C134.157 25.9629 134.003 26.1291 133.811 26.2412C132.968 26.8243 131.958 27.1164 130.934 27.0732C129.566 24.5564 127.959 22.1755 126.352 19.7988C125.124 17.9781 123.895 16.1574 122.666 14.3367C122.292 13.732 121.842 13.1782 121.326 12.6891C121.306 12.5943 121.29 12.4955 121.273 12.3966L121.216 12.1536C121.203 11.9394 121.199 11.7211 121.199 11.5068C121.601 11.5973 122.014 11.6237 122.424 11.5851C124.033 11.5989 125.591 12.1562 126.845 13.1669C128.085 14.1755 129.196 15.3335 130.154 16.6147C130.779 17.3695 131.355 18.1634 131.88 18.9914C132.905 20.8601 133.686 22.8538 134.201 24.9231C134.311 25.1897 134.329 25.4849 134.255 25.7633Z" fill="#FFBA55"/>
<path d="M136.369 95.8772C131.111 95.7541 128.716 89.5279 128.349 85.1549C128.112 82.3363 128.472 79.5474 128.504 76.7329C128.533 74.1831 127.229 73.348 124.995 72.6078C123.875 72.2436 122.868 71.5921 122.076 70.7179C121.284 69.8438 120.733 68.7773 120.479 67.6242C120.165 65.3173 120.719 62.9758 122.031 61.0549C124.431 56.7803 127.007 52.7676 124.674 47.8C124.004 46.3725 119.725 47.7737 120.29 48.9775C123.034 54.8209 118.582 58.6952 116.606 63.7972C116.169 64.8263 115.95 65.935 115.962 67.0533C115.973 68.1716 116.216 69.2754 116.674 70.2951C117.133 71.3147 117.796 72.2283 118.624 72.9781C119.452 73.7279 120.426 74.2977 121.484 74.6517C122.905 75.1224 123.914 75.3173 124.106 77.0285C124.157 78.6834 124.091 80.3398 123.909 81.9854C123.698 84.7764 123.965 87.583 124.698 90.2837C125.304 92.489 126.591 94.4455 128.374 95.8727C130.158 97.2999 132.346 98.1247 134.626 98.2288C135.476 98.2487 137.096 97.9113 137.527 97.0582C137.972 96.1783 137.148 95.8955 136.369 95.8773V95.8772Z" fill="#5E1212"/>
<path d="M115.566 51.2682C116.858 51.606 117.966 52.4421 118.646 53.5944C119.327 54.7467 119.526 56.1219 119.2 57.4206C118.717 58.8226 117.812 60.0396 116.609 60.9031C115.455 61.8905 114.539 63.1269 113.93 64.5196C111.622 70.2443 115.702 75.8088 121.575 76.4173C122.124 76.481 122.68 76.3966 123.185 76.1727C123.69 75.9488 124.127 75.5937 124.449 75.144C124.93 74.1828 124.029 73.6585 123.186 73.5711C121.912 73.3923 120.721 72.832 119.77 71.9634C118.819 71.0949 118.152 69.9587 117.856 68.7037C117.552 67.4125 117.628 66.0605 118.077 64.8121C118.644 63.5055 119.535 62.3653 120.663 61.499C121.808 60.6179 122.688 59.4383 123.209 58.0893C123.729 56.7403 123.87 55.2737 123.615 53.8501C123.273 52.559 122.586 51.3862 121.626 50.4592C120.667 49.5321 119.472 48.8862 118.173 48.5915C117.628 48.4587 117.058 48.4653 116.517 48.6108C115.975 48.7563 115.478 49.036 115.073 49.4241C114.914 49.5499 114.795 49.7198 114.731 49.9125C114.667 50.1053 114.661 50.3126 114.714 50.5088C114.766 50.705 114.875 50.8815 115.026 51.0165C115.178 51.1514 115.365 51.239 115.566 51.2682L115.566 51.2682Z" fill="#5E1212"/>
<path d="M132.659 1.51955C134.33 -0.0313255 136.789 0.399592 138.709 1.23314C140.742 2.18791 142.54 3.58082 143.974 5.31242C147.103 9.21764 149.132 13.892 149.849 18.8495C150.425 21.9967 150.697 25.1886 150.968 28.3735C150.986 28.58 152.098 28.3794 152.072 28.077C151.576 22.2383 151.07 16.2341 148.678 10.8103C146.771 6.48504 143.428 2.00275 138.766 0.479719C137.587 0.0262673 136.31 -0.108893 135.063 0.0877795C133.816 0.284452 132.642 0.806055 131.659 1.60037C131.474 1.77203 131.823 1.78994 131.921 1.78478C132.189 1.77683 132.447 1.68399 132.659 1.51958V1.51955Z" fill="#5E1212"/>
<path d="M155.569 21.9618C155.181 23.6377 155.368 25.3957 156.099 26.9522C156.83 28.5087 158.063 29.7728 159.599 30.5404C161.23 31.3196 163.093 31.3436 164.76 32.0142C165.597 32.316 166.301 32.9037 166.748 33.6741C167.192 34.6425 167.373 35.7111 167.273 36.7719C167.156 39.2449 166.186 41.6005 164.528 43.4351C164.357 43.6238 164.677 43.6632 164.8 43.6608C165.071 43.6614 165.332 43.5633 165.536 43.3848C166.959 41.8157 167.9 39.8681 168.246 37.776C168.551 35.8914 168.539 33.529 166.901 32.2427C165.382 31.3676 163.703 30.8085 161.964 30.5987C160.199 30.155 158.668 29.0557 157.682 27.5235C157.13 26.6871 156.756 25.7464 156.58 24.7594C156.405 23.7724 156.433 22.7599 156.663 21.7841C156.736 21.4954 155.647 21.6543 155.569 21.9618Z" fill="#5E1212"/>
<path d="M158.365 49.339C154.564 51.968 154.033 56.5309 154.554 60.8072C154.982 64.325 155.407 69.0118 158.776 71.0292C159.238 71.1888 159.728 71.254 160.215 71.221C160.703 71.188 161.179 71.0575 161.615 70.8371C161.852 70.748 163.61 69.9161 162.896 69.4885C159.867 67.6752 159.486 63.5908 159.042 60.4182C158.538 56.8122 158.354 51.9348 161.753 49.584C162.457 49.0969 162.282 48.5962 161.465 48.5063C160.369 48.4399 159.281 48.7321 158.365 49.3389L158.365 49.339Z" fill="#5E1212"/>
<path d="M77.6881 19.694C78.4573 17.3357 80.0306 15.3244 82.1319 14.0131C84.5204 12.5629 87.2597 11.7963 90.0523 11.7965C91.8047 11.7587 93.5576 11.8465 95.2975 12.0592C95.5628 12.0782 95.8283 12.0266 96.0672 11.9097C96.1385 11.8764 96.4612 11.6809 96.2109 11.6528C90.2337 10.9824 83.2743 11.2945 78.884 16.0121C77.8376 17.117 77.0571 18.4471 76.6022 19.9008C76.5491 20.0748 77.6069 19.96 77.6881 19.694Z" fill="#5E1212"/>
<path d="M149.07 113.195C148.561 114.086 134.481 128.815 132.04 144.319L149.07 113.195Z" fill="#D2F1F9"/>
<path d="M169.616 170.507C169.123 168.443 166.473 165.564 163.97 163.216V127.969C163.981 125.28 163.423 122.619 162.333 120.163C161.243 117.706 159.646 115.508 157.647 113.715C155.648 111.922 153.293 110.574 150.736 109.76C148.18 108.946 145.48 108.684 142.815 108.992C138.763 109.527 134.831 110.747 131.185 112.6L131.337 112.188C149.891 93.5854 165.704 118.712 165.704 118.712C169.509 123.618 169.629 163.01 169.616 170.507Z" fill="#D2F1F9"/>
<g opacity="0.4" style="mix-blend-mode:multiply">
<path d="M131.181 112.604L129.981 113.774L118.122 97.0539C115.475 101.676 106.056 109.708 102.892 112.336C102.354 109.177 101.844 107.018 101.844 107.018C105.94 105.323 109.608 102.734 112.58 99.4402C115.553 96.1462 117.756 92.2296 119.03 87.9752L119.926 84.9888C119.502 91.3736 131.181 112.604 131.181 112.604Z" fill="#FFA787"/>
</g>
<path d="M85.7269 79.8857C85.7269 79.8857 84.3901 86.3639 83.4846 89.5108C82.5458 92.7739 86.5584 94.6762 88.0861 91.6813C88.4917 90.845 88.7946 89.9624 88.9881 89.053L85.7269 79.8857Z" fill="#FF8D69"/>
<path d="M134.736 78.2254C133.166 79.3355 131.379 80.098 129.492 80.4622C129.439 80.4745 129.385 80.4869 129.332 80.4951C128.978 80.561 128.629 80.6104 128.28 80.6434C124.937 80.9952 121.581 80.1023 118.852 78.1347C116.123 76.167 114.211 73.262 113.48 69.9728C112.75 66.6837 113.252 63.24 114.89 60.2978C116.529 57.3555 119.19 55.12 122.366 54.017C123.022 53.7845 123.696 53.6055 124.38 53.4815C125.472 53.28 126.584 53.2122 127.692 53.2796C127.696 53.2776 127.7 53.2765 127.705 53.2765C127.709 53.2765 127.713 53.2776 127.717 53.2796C130.549 53.4598 133.256 54.5168 135.463 56.3047C137.67 58.0926 139.269 60.5232 140.04 63.261C140.81 65.9988 140.713 68.9088 139.763 71.5892C138.813 74.2697 137.057 76.5884 134.736 78.2254Z" fill="#F53C42"/>
<path d="M127.692 53.2462V53.2791C127.692 54.7126 127.635 55.5406 127.635 55.5406L122.839 57.8061C122.703 56.5044 122.546 55.2412 122.366 54.0165C117.102 18.3608 92.5605 15.2837 83.2444 15.432C86.2499 13.0834 89.8787 11.6738 93.6783 11.3787C95.468 11.2422 97.268 11.3797 99.0164 11.7865C125.641 16.8696 127.676 44.9666 127.692 53.2462Z" fill="#F53C42"/>
<path d="M60.6222 102.008L61.5715 103.462C61.2099 103.008 60.892 102.522 60.6222 102.008Z" fill="#FFA787"/>
<g opacity="0.4" style="mix-blend-mode:multiply">
<path d="M70.7108 113.014L68.6931 114.378L60.6222 103.942C62.106 105.327 66.2679 112.719 70.7108 113.014Z" fill="#FFA787"/>
</g>
<path d="M62.4003 80.2671C62.5351 79.9835 62.7125 79.7223 62.9263 79.4927C62.6263 79.9046 62.4496 80.1888 62.4003 80.2671Z" fill="#5E1212"/>
<path d="M74.8575 76.1867C72.3706 76.2854 69.8996 76.6317 67.4811 77.2206C67.3578 76.7676 67.177 76.1249 66.9551 75.3588C69.1332 73.6125 71.851 72.683 74.6397 72.7308L74.8575 76.1867Z" fill="#5E1212"/>
<path d="M90.8591 63.3278L93.5606 66.9677C93.5606 66.9677 104.531 58.1902 109.502 60.4974C109.502 60.4974 98.0891 56.6596 90.8591 63.3278Z" fill="#5E1212"/>
<g opacity="0.4" style="mix-blend-mode:multiply">
<path d="M127.693 77.3325C132.758 77.3325 136.864 73.2165 136.864 68.1391C136.864 63.0618 132.758 58.9458 127.693 58.9458C122.627 58.9458 118.521 63.0618 118.521 68.1391C118.521 73.2165 122.627 77.3325 127.693 77.3325Z" fill="#F53C42"/>
</g>
<path d="M128.12 76.3227C133.186 76.3227 137.292 72.2067 137.292 67.1294C137.292 62.052 133.186 57.936 128.12 57.936C123.055 57.936 118.949 62.052 118.949 67.1294C118.949 72.2067 123.055 76.3227 128.12 76.3227Z" fill="white"/>
<g opacity="0.4" style="mix-blend-mode:multiply">
<path d="M127.692 53.2462C127.663 52.7395 125.477 34.5675 117.287 26.3643C117.287 26.3643 106.224 12.8205 93.6779 11.3787C95.4676 11.2422 97.2676 11.3797 99.016 11.7865C125.641 16.8696 127.675 44.9666 127.692 53.2462Z" fill="#F53C42"/>
</g>
<g opacity="0.4" style="mix-blend-mode:multiply">
<path d="M134.736 78.2241C138.097 72.7291 139.223 64.1777 127.717 53.2783C130.549 53.4585 133.255 54.5155 135.463 56.3034C137.67 58.0913 139.269 60.5219 140.039 63.2597C140.81 65.9975 140.713 68.9075 139.763 71.5879C138.813 74.2684 137.057 76.5871 134.736 78.2241Z" fill="#F53C42"/>
</g>
<path d="M156.576 30.826C156.46 32.0778 156.757 33.3331 157.419 34.4005C158.082 35.468 159.074 36.2893 160.245 36.7392C160.967 36.9982 161.741 37.098 162.443 37.4107C163.052 37.6822 163.555 38.148 163.872 38.7356C164.156 39.296 164.324 39.9085 164.364 40.5359C164.404 41.1632 164.317 41.7922 164.107 42.3845C163.422 44.0072 162.371 45.4491 161.038 46.5976C160.587 47.0458 161.667 47.0157 161.919 46.7652C163.867 44.828 166.078 42.3719 165.337 39.3878C165.199 38.7799 164.908 38.2176 164.491 37.7545C164.075 37.2913 163.547 36.9426 162.959 36.7415C162.232 36.4888 161.457 36.3824 160.753 36.0631C160.15 35.7854 159.607 35.3918 159.155 34.9047C158.624 34.3461 158.218 33.6807 157.963 32.9526C157.709 32.2245 157.611 31.4505 157.678 30.6819C157.721 30.2545 156.612 30.4629 156.575 30.8259L156.576 30.826Z" fill="#C47076"/>
<path d="M168.178 39.7903C168.655 40.7344 168.813 41.8079 168.628 42.8497C168.444 43.8914 167.927 44.845 167.156 45.5673C166.983 45.7203 167.037 45.8921 167.256 45.9416C167.394 45.9636 167.534 45.9563 167.669 45.9201C167.804 45.884 167.929 45.8199 168.037 45.7319C168.893 44.9693 169.478 43.9477 169.703 42.822C169.928 41.6963 169.78 40.5278 169.283 39.4937C169.096 39.1286 168.024 39.4891 168.178 39.7903Z" fill="#C47076"/>
<g opacity="0.4" style="mix-blend-mode:multiply">
<path d="M134.255 25.7633C132.418 20.7874 121.273 12.3966 121.273 12.3966L121.216 12.1536C121.203 11.9394 121.199 11.7211 121.199 11.5068C121.601 11.5973 122.014 11.6237 122.424 11.5851C124.033 11.5989 125.591 12.1562 126.845 13.1669C128.085 14.1755 129.196 15.3335 130.154 16.6147C130.779 17.3695 131.355 18.1634 131.88 18.9914C132.905 20.8601 133.686 22.8538 134.201 24.9231C134.311 25.1897 134.329 25.4849 134.255 25.7633Z" fill="#FFBA55"/>
</g>
<path d="M129.499 81.2528C129.504 81.3324 129.503 81.4123 129.495 81.4917C129.379 84.6506 128.601 87.7497 127.21 90.5868C126.885 91.2789 126.528 91.9585 126.154 92.6135C125.322 94.0529 124.403 95.4408 123.405 96.7698C122.476 98.0137 121.502 99.2206 120.499 100.407C119.131 102.038 117.717 103.636 116.353 105.263C111.7 110.807 107.587 116.783 104.07 123.112L103.984 123.273C102.903 125.225 101.882 127.208 100.922 129.221C100.491 130.106 100.08 130.996 99.6769 131.894C98.8961 133.641 98.1605 135.408 97.4701 137.196C96.5414 139.585 95.6962 142.004 94.9346 144.454C94.7003 145.199 94.4785 145.953 94.2606 146.703C92.4892 152.182 91.7248 157.937 92.0046 163.69C92.2754 166.451 92.8983 169.166 93.858 171.768C94.5155 173.65 95.2511 175.52 95.8222 177.436H94.5319C94.3758 176.933 94.2073 176.431 94.0388 175.936C93.1594 173.37 92.1156 170.849 91.4786 168.205C90.8489 165.484 90.6 162.69 90.7389 159.9C91.0508 154.962 91.9927 150.083 93.5415 145.384C93.71 144.824 93.8867 144.268 94.0634 143.716C94.6099 142.011 95.2017 140.314 95.8305 138.637C96.9976 135.523 98.3002 132.464 99.7385 129.46C99.7919 129.336 99.8535 129.217 99.9111 129.093C100.774 127.309 101.681 125.551 102.632 123.816C103.071 123.013 103.523 122.215 103.988 121.423C105.167 119.384 106.412 117.385 107.723 115.426C110.712 111.023 113.968 106.808 117.471 102.804C118.33 101.803 119.197 100.798 120.047 99.7727C121.083 98.5122 122.094 97.227 123.031 95.8965C124.403 93.9951 125.565 91.9495 126.495 89.796C126.581 89.5942 126.659 89.3924 126.742 89.1905C127.63 86.9671 128.148 84.6125 128.275 82.2208C128.287 82.0272 128.291 81.8337 128.291 81.64C128.299 81.3516 128.295 81.0674 128.283 80.7791C128.283 80.7338 128.283 80.6885 128.279 80.6431C128.628 80.6102 128.977 80.5608 129.331 80.4948C129.384 80.4866 129.437 80.4743 129.491 80.4619V80.5113C129.503 80.7585 129.503 81.0056 129.499 81.2528Z" fill="#FFBA55"/>
<path d="M82.801 171.722C82.8215 173.63 82.8831 175.533 83.0105 177.436H81.7941C81.6133 174.482 81.5887 171.516 81.601 168.555C81.6297 159.871 81.9749 151.036 79.6778 142.575C78.897 139.692 77.8614 136.891 76.9244 134.057C76.76 133.562 76.5998 133.068 76.4436 132.57C76.1806 131.729 75.9299 130.881 75.6998 130.024C74.7514 126.354 74.2763 122.578 74.2861 118.787C74.2767 116.56 74.3989 114.334 74.6519 112.122C75.1608 107.629 76.2194 103.216 77.8038 98.9817C78.0258 98.4009 78.2559 97.8201 78.4942 97.2476C78.7051 97.6004 78.937 97.9401 79.1887 98.265C79.123 98.438 79.0572 98.6069 78.9914 98.7799C78.6914 99.579 78.4079 100.39 78.1449 101.206C77.035 104.648 76.2642 108.191 75.8436 111.784C75.4551 115.055 75.3698 118.355 75.5889 121.641C75.8712 125.356 76.5913 129.024 77.734 132.57C77.7997 132.767 77.8614 132.969 77.9271 133.167C77.997 133.381 78.0669 133.595 78.1409 133.809C79.5627 137.672 80.7362 141.622 81.6544 145.636C82.0623 147.789 82.3504 149.963 82.5174 152.148C82.5256 152.218 82.5338 152.292 82.538 152.362C83.0434 158.788 82.7229 165.284 82.801 171.722Z" fill="#EFA94B"/>
</svg>
