<svg width="16" height="16" viewBox="0 0 16 16" fill="none" xmlns="http://www.w3.org/2000/svg">
<path fill-rule="evenodd" clip-rule="evenodd" d="M2.9064 3.37388C2.90773 3.37388 2.8744 3.40854 2.8324 3.44988C2.67106 3.60654 2.33706 3.93254 2.3337 4.61454C2.3284 5.56854 2.95573 7.33988 5.9764 10.3599C8.98306 13.3652 10.7517 13.9999 11.7077 13.9999H11.7217C12.4037 13.9965 12.7291 13.6619 12.8864 13.5012C12.9344 13.4519 12.9731 13.4159 13.0004 13.3932C13.6644 12.7252 14.0044 12.2279 14.0011 11.9092C13.9964 11.5839 13.5917 11.1992 13.0324 10.6672C12.8544 10.4979 12.6611 10.3139 12.4571 10.1099C11.9284 9.58254 11.6664 9.67254 11.0904 9.87521C10.2937 10.1545 9.2004 10.5345 7.50173 8.83521C5.8004 7.13521 6.18106 6.04321 6.45973 5.24654C6.66106 4.67054 6.75306 4.40788 6.22373 3.87854C6.0164 3.67188 5.8304 3.47588 5.65906 3.29588C5.1304 2.73988 4.74906 2.33788 4.42573 2.33321H4.4204C4.10106 2.33321 3.60506 2.67454 2.90306 3.37654C2.90506 3.37454 2.90573 3.37388 2.9064 3.37388ZM11.7084 14.9999C10.0471 14.9999 7.88106 13.6772 5.26973 11.0672C2.6484 8.44654 1.32373 6.27388 1.33367 4.60921C1.33973 3.50921 1.9164 2.94588 2.13306 2.73454C2.1444 2.72054 2.18306 2.68254 2.1964 2.66921C3.1524 1.71254 3.79706 1.32588 4.4384 1.33311C5.18306 1.34321 5.71306 1.90054 6.38373 2.60654C6.54973 2.78121 6.72973 2.97121 6.9304 3.17121C7.90373 4.14454 7.6264 4.93854 7.40373 5.57588C7.16106 6.27121 6.95106 6.87121 8.2084 8.12854C9.46706 9.38588 10.0671 9.17588 10.7597 8.93121C11.3977 8.70854 12.1897 8.42988 13.1644 9.40321C13.3617 9.60054 13.5491 9.77854 13.7217 9.94321C14.4311 10.6172 14.9911 11.1499 15.0005 11.8965C15.0084 12.5332 14.6217 13.1819 13.6671 14.1372L13.2444 13.8505L13.6017 14.1999C13.3904 14.4165 12.8277 14.9939 11.7271 14.9999H11.7084Z" fill="#727272"/>
</svg>
