<svg width="16" height="16" viewBox="0 0 16 16" fill="none" xmlns="http://www.w3.org/2000/svg">
<path fill-rule="evenodd" clip-rule="evenodd" d="M8.16626 1.33325C11.1989 1.33325 13.6663 3.81925 13.6663 6.87525C13.6663 10.6319 9.36226 14.3333 8.16626 14.3333C6.97026 14.3333 2.66626 10.6319 2.66626 6.87525C2.66626 3.81925 5.13359 1.33325 8.16626 1.33325ZM8.16626 2.33325C5.68493 2.33325 3.66626 4.37125 3.66626 6.87525C3.66626 10.0613 7.41559 13.1653 8.16626 13.3306C8.91693 13.1646 12.6663 10.0606 12.6663 6.87525C12.6663 4.37125 10.6476 2.33325 8.16626 2.33325ZM8.16693 4.66659C9.36159 4.66659 10.3336 5.63859 10.3336 6.83392C10.3336 8.02859 9.36159 8.99992 8.16693 8.99992C6.97226 8.99992 6.00026 8.02859 6.00026 6.83392C6.00026 5.63859 6.97226 4.66659 8.16693 4.66659ZM8.16693 5.66659C7.52359 5.66659 7.00026 6.18992 7.00026 6.83392C7.00026 7.47725 7.52359 7.99992 8.16693 7.99992C8.81026 7.99992 9.33359 7.47725 9.33359 6.83392C9.33359 6.18992 8.81026 5.66659 8.16693 5.66659Z" fill="#727272"/>
</svg>
