<svg width="16" height="16" viewBox="0 0 16 16" fill="none" xmlns="http://www.w3.org/2000/svg">
<path fill-rule="evenodd" clip-rule="evenodd" d="M11.106 1.33325C13.326 1.33325 15 3.14459 15 5.54659V10.1253C15 11.3546 14.5653 12.4653 13.7753 13.2533C13.0666 13.9593 12.1473 14.3333 11.1166 14.3333H4.54796C3.51929 14.3333 2.60063 13.9599 1.89129 13.2533C1.10129 12.4653 0.666626 11.3546 0.666626 10.1253V5.54659C0.666626 3.14459 2.34063 1.33325 4.56063 1.33325H11.106ZM11.106 2.33325H4.56063C2.88396 2.33325 1.66663 3.68459 1.66663 5.54659V10.1253C1.66663 11.0873 1.99729 11.9466 2.59729 12.5446C3.11463 13.0613 3.78996 13.3333 4.54996 13.3333H11.106C11.1073 13.3319 11.1126 13.3333 11.1166 13.3333C11.8773 13.3333 12.552 13.0613 13.0693 12.5446C13.67 11.9466 14 11.0873 14 10.1253V5.54659C14 3.68459 12.7826 2.33325 11.106 2.33325ZM12.1566 5.41912C12.3306 5.63312 12.298 5.94779 12.084 6.12245L9.12129 8.53045C8.74663 8.82779 8.29863 8.97645 7.85129 8.97645C7.40529 8.97645 6.96063 8.82912 6.58863 8.53445L3.59863 6.12379C3.38329 5.95045 3.34996 5.63512 3.52263 5.42045C3.69663 5.20645 4.01129 5.17245 4.22596 5.34512L7.21329 7.75312C7.58863 8.05045 8.11729 8.05045 8.49529 7.75045L11.4526 5.34645C11.6673 5.17112 11.982 5.20445 12.1566 5.41912Z" fill="#727272"/>
</svg>
