<svg width="148" height="142" viewBox="0 0 148 142" fill="none" xmlns="http://www.w3.org/2000/svg">
<circle cx="17" cy="47" r="16.5" fill="white" stroke="#FF725E"/>
<path d="M21.8572 47.1666C21.8572 47.3971 21.6859 47.5877 21.4636 47.6178L21.4018 47.622L13.3973 47.6216L16.2891 50.5016C16.4673 50.6791 16.4679 50.9674 16.2905 51.1456C16.1291 51.3076 15.8762 51.3228 15.6976 51.1909L15.6465 51.147L11.9733 47.4895C11.9498 47.4661 11.9294 47.4408 11.9121 47.4141C11.9072 47.4061 11.9022 47.3978 11.8975 47.3894C11.8931 47.3822 11.8892 47.3748 11.8855 47.3672C11.8804 47.3562 11.8753 47.3448 11.8708 47.3333C11.8671 47.3243 11.864 47.3156 11.8612 47.3069C11.8578 47.296 11.8545 47.2844 11.8517 47.2727C11.8497 47.2645 11.848 47.2566 11.8466 47.2486C11.8445 47.2368 11.8428 47.2246 11.8416 47.2123C11.8405 47.2029 11.8399 47.1935 11.8395 47.1842C11.8394 47.1785 11.8393 47.1726 11.8393 47.1666L11.8396 47.149C11.8399 47.14 11.8405 47.1311 11.8414 47.1222L11.8393 47.1666C11.8393 47.1379 11.842 47.1098 11.8471 47.0825C11.8483 47.076 11.8497 47.0693 11.8512 47.0627C11.8545 47.049 11.8582 47.0358 11.8625 47.0228C11.8646 47.0164 11.8671 47.0095 11.8697 47.0027C11.875 46.989 11.8808 46.9759 11.8872 46.9632C11.8901 46.9572 11.8934 46.951 11.8969 46.9448C11.9026 46.9346 11.9085 46.925 11.9147 46.9157C11.919 46.909 11.9239 46.9021 11.9289 46.8953L11.9329 46.8901C11.9451 46.8741 11.9584 46.8589 11.9727 46.8446L11.9732 46.8442L15.6465 43.1862C15.8246 43.0087 16.113 43.0093 16.2904 43.1875C16.4518 43.3495 16.4659 43.6025 16.3333 43.7805L16.2891 43.8315L13.3985 46.7109L21.4018 46.7113C21.6533 46.7113 21.8572 46.9151 21.8572 47.1666Z" fill="#FF725E"/>
<g filter="url(#filter0_d_1_952)">
<circle cx="67" cy="47" r="17" transform="rotate(-180 67 47)" fill="#FF725E"/>
</g>
<path d="M62.1428 46.8334C62.1428 46.6029 62.3141 46.4123 62.5364 46.3822L62.5982 46.378L70.6027 46.3784L67.7109 43.4984C67.5327 43.3209 67.5321 43.0326 67.7095 42.8544C67.8709 42.6924 68.1238 42.6772 68.3024 42.8091L68.3535 42.853L72.0267 46.5105C72.0502 46.5339 72.0706 46.5592 72.0879 46.5859C72.0928 46.5939 72.0978 46.6022 72.1025 46.6106C72.1069 46.6178 72.1108 46.6252 72.1145 46.6328C72.1196 46.6438 72.1247 46.6552 72.1292 46.6667C72.1329 46.6757 72.136 46.6844 72.1388 46.6931C72.1422 46.704 72.1455 46.7156 72.1483 46.7273C72.1503 46.7355 72.152 46.7434 72.1534 46.7514C72.1555 46.7632 72.1572 46.7754 72.1584 46.7877C72.1595 46.7971 72.1601 46.8065 72.1605 46.8158C72.1606 46.8215 72.1607 46.8274 72.1607 46.8334L72.1604 46.851C72.1601 46.86 72.1595 46.8689 72.1586 46.8778L72.1607 46.8334C72.1607 46.8621 72.158 46.8902 72.1529 46.9175C72.1517 46.924 72.1503 46.9307 72.1488 46.9373C72.1455 46.951 72.1418 46.9642 72.1375 46.9772C72.1354 46.9836 72.1329 46.9905 72.1303 46.9973C72.125 47.011 72.1192 47.0241 72.1128 47.0368C72.1099 47.0428 72.1066 47.049 72.1031 47.0552C72.0974 47.0654 72.0915 47.075 72.0853 47.0843C72.081 47.091 72.0761 47.0979 72.0711 47.1047L72.0671 47.1099C72.0549 47.1259 72.0416 47.1411 72.0273 47.1554L72.0268 47.1558L68.3535 50.8138C68.1754 50.9913 67.887 50.9907 67.7096 50.8125C67.5482 50.6505 67.5341 50.3975 67.6667 50.2195L67.7109 50.1685L70.6015 47.2891L62.5982 47.2887C62.3467 47.2887 62.1428 47.0849 62.1428 46.8334Z" fill="#F4F6F6"/>
<defs>
<filter id="filter0_d_1_952" x="6" y="0" width="142" height="142" filterUnits="userSpaceOnUse" color-interpolation-filters="sRGB">
<feFlood flood-opacity="0" result="BackgroundImageFix"/>
<feColorMatrix in="SourceAlpha" type="matrix" values="0 0 0 0 0 0 0 0 0 0 0 0 0 0 0 0 0 0 127 0" result="hardAlpha"/>
<feOffset dx="10" dy="24"/>
<feGaussianBlur stdDeviation="27"/>
<feComposite in2="hardAlpha" operator="out"/>
<feColorMatrix type="matrix" values="0 0 0 0 0.0784505 0 0 0 0 0.0784505 0 0 0 0 0.0784505 0 0 0 0.15 0"/>
<feBlend mode="normal" in2="BackgroundImageFix" result="effect1_dropShadow_1_952"/>
<feBlend mode="normal" in="SourceGraphic" in2="effect1_dropShadow_1_952" result="shape"/>
</filter>
</defs>
</svg>
